/* XPM */
static char *PISFA0[] = {
/* columns rows colors chars-per-pixel */
"82 76 254 2 ",
"   c #020101",
".  c #0A0905",
"X  c #130D06",
"o  c #151306",
"O  c #14130B",
"+  c #1C150C",
"@  c #1C1B0D",
"#  c #191608",
"$  c #1B1B13",
"%  c #1C1C1A",
"&  c #161613",
"*  c #0F1011",
"=  c #271B0C",
"-  c #231D12",
";  c #271E15",
":  c #351506",
">  c #1D2214",
",  c #1C230E",
"<  c #232415",
"1  c #24221B",
"2  c #2B2C1D",
"3  c #292617",
"4  c #362717",
"5  c #2C321A",
"6  c #36341C",
"7  c #30230E",
"8  c #2C2B24",
"9  c #282723",
"0  c #342D24",
"q  c #33332B",
"w  c #383426",
"e  c #393934",
"r  c #2E312C",
"t  c #1C1E20",
"y  c #501A08",
"u  c #45250B",
"i  c #592909",
"p  c #452B17",
"a  c #483516",
"s  c #55381A",
"d  c #4B340E",
"f  c #692906",
"g  c #792904",
"h  c #673917",
"j  c #733613",
"k  c #453626",
"l  c #4E382A",
"z  c #6C3526",
"x  c #740E08",
"c  c #70441B",
"v  c #4F4433",
"b  c #6F4A2F",
"n  c #594C1E",
"m  c #4E4F4F",
"M  c #6D5749",
"N  c #696C6E",
"B  c #7B6557",
"V  c #3C3F35",
"C  c #8B0D07",
"Z  c #B91B19",
"A  c #B50D0A",
"S  c #862C03",
"D  c #963804",
"F  c #8F3707",
"G  c #AA300D",
"H  c #933A2D",
"J  c #B72625",
"K  c #AC3637",
"L  c #B63733",
"P  c #C90806",
"I  c #DB0C0A",
"U  c #D70706",
"Y  c #C81614",
"T  c #D81915",
"R  c #D3120E",
"E  c #EC0A05",
"W  c #E70805",
"Q  c #F40402",
"!  c #FA0402",
"~  c #FB0B05",
"^  c #F50C08",
"/  c #EC120D",
"(  c #E7150D",
")  c #F4130C",
"_  c #FB140B",
"`  c #FB1B0D",
"'  c #F71609",
"]  c #E81A14",
"[  c #FC1D12",
"{  c #F71A15",
"}  c #D8261C",
"|  c #D32E1C",
" . c #F8270C",
".. c #E92419",
"X. c #FD2115",
"o. c #FD251A",
"O. c #FC2A1D",
"+. c #F62518",
"@. c #EE3215",
"#. c #C72825",
"$. c #D82925",
"%. c #D6332A",
"&. c #C83937",
"*. c #D83836",
"=. c #CA372B",
"-. c #E72A25",
";. c #FD2C23",
":. c #F72A25",
">. c #E7342C",
",. c #FD3126",
"<. c #FD342B",
"1. c #F8352B",
"2. c #FE3C33",
"3. c #FC3935",
"4. c #E93733",
"5. c #95480B",
"6. c #924C15",
"7. c #A94605",
"8. c #B64904",
"9. c #B95506",
"0. c #A55419",
"q. c #B35813",
"w. c #B2621D",
"e. c #8D552D",
"r. c #A6552B",
"t. c #94643A",
"y. c #B26930",
"u. c #C75704",
"i. c #CE5405",
"p. c #D96503",
"a. c #CC6912",
"s. c #E4700A",
"d. c #D34933",
"f. c #FE433C",
"g. c #FD4237",
"h. c #EF443E",
"j. c #C97432",
"k. c #EB7922",
"l. c #E53D40",
"z. c #B74948",
"x. c #B45451",
"c. c #91694E",
"v. c #AA6B44",
"b. c #997060",
"n. c #C64949",
"m. c #D24F4C",
"M. c #FE4442",
"N. c #FE4B44",
"B. c #FE4D4B",
"V. c #F24E47",
"C. c #FE524C",
"Z. c #FC5448",
"A. c #FE5452",
"S. c #FD5A55",
"D. c #FE5D5B",
"F. c #F85858",
"G. c #F2514F",
"H. c #CF6D52",
"J. c #FD625D",
"K. c #F0685F",
"L. c #EF665D",
"P. c #FE5D63",
"I. c #D2776E",
"U. c #FE6362",
"Y. c #FE6A65",
"T. c #FE6C6C",
"R. c #FD6669",
"E. c #FD726D",
"W. c #FE6D72",
"Q. c #FE7374",
"!. c #FD7B7C",
"~. c #FC7876",
"^. c #E6726B",
"/. c #B23F41",
"(. c #EC8635",
"). c #DF8337",
"_. c #AE8974",
"`. c #BD8150",
"'. c #D38952",
"]. c #EF934E",
"[. c #D28D66",
"{. c #EF8E74",
"}. c #E9A678",
"|. c #F5AA78",
" X c #F6A96E",
".X c #EAA068",
"XX c #767C81",
"oX c #FE7D82",
"OX c #7E8285",
"+X c #979798",
"@X c #D6998A",
"#X c #CC978A",
"$X c #FD8483",
"%X c #FD8C8C",
"&X c #FE8887",
"*X c #FA958C",
"=X c #FD9493",
"-X c #FD9B9A",
";X c #FD9B95",
":X c #F19189",
">X c #DAA693",
",X c #D4A890",
"<X c #F9B789",
"1X c #FCA39C",
"2X c #FAA697",
"3X c #E6B79A",
"4X c #F9B896",
"5X c #EBAB8F",
"6X c #FDA5A3",
"7X c #FDABA5",
"8X c #FCADA9",
"9X c #FCB3AB",
"0X c #FCB9A9",
"qX c #FCBBB3",
"wX c #FCB8B3",
"eX c #E8BFA2",
"rX c #FD9EA1",
"tX c #FAC39B",
"yX c #ECC49E",
"uX c #F9C8A8",
"iX c #F9D3AD",
"pX c #FCC4BB",
"aX c #FCC9B7",
"sX c #FDD4BA",
"dX c #FEDBBB",
"fX c #FBD5B5",
"gX c #ECC4A7",
"hX c #FEE2BC",
"jX c #FFE8BF",
"kX c #FCCCC2",
"lX c #FCD2C5",
"zX c #FDDBC4",
"xX c #FDD4C9",
"cX c #FDDBCD",
"vX c #F6DDC3",
"bX c #FDDED2",
"nX c #FDE2CD",
"mX c #FDE7C6",
"MX c #FDE4D4",
"NX c #FEEBD4",
"BX c #FEE6D9",
"VX c #FEEBDC",
"CX c #FEF4DB",
"ZX c #FEFADD",
"AX c #FEF4D5",
"SX c #FEF1CA",
"DX c #FEEEE2",
"FX c #FEF3E4",
"GX c #FEF5EB",
"HX c #FEFAE8",
"JX c #FEFAF5",
"KX c #FFFDFB",
"LX c #FEF7F1",
"PX c None",
/* pixels */
"PXPXPXPXPXPXPXPXPXPXPXPXPXPXPXPXPXPXPXPXPXPXPXPXPXPXPXPXPXPXPXPXPXPXPXPXPXPXPXPXPXPXPXPXPXPXPXPXPXPXPXPXPXPXPXPXPXPXPXPXPXPXPXPXPXPXPXPXPXPXPXPXPXPXPXPXPXPXPXPXPXPX",
"PXPXPXPXPXPXPXPXPXPXPXPXPXPXPXPXPXPXPXPXPXPXPXPXPXPXPXPXPXPXPXPXPXPXPXPXPXPXPXPXPXPXPXPXPXPXPXPXPXPXPXPXPXPXPXPXPXPXPXPXPXPXPXPXPXPXPXPXPXPXPXPXPXPXPXPXPXPXPXPXPXPX",
"PXPXPXPXPXPXPXPXPXPXPXPXPXPXPXPXPXPXPXPXPXPXPXPXPXPXPXPXPXPXPXPXPXPXPXPXPXPXPXPXPXPXPXPXPXPXPXPXPXPXPXPXPXPXPXPXPXPXPXPXPXPXPXPXPXPXPXPXPXPXPXPXPXPXPXPXPXPXPXPXPXPX",
"PXPXPXPXPXPXPXPXPXPXPXPXPXPXPXPXPXPXPXPXPXPXPXPXPXPXPXPXPXPXPXPXPXPXPXPXPX>X>X>X>X>XPXPXPXPXPXPXPXPXPXPXPXPXPXPXPXPXPXPXPXPXPXPXPXPXPXPXPXPXPXPXPXPXPXPXPXPXPXPXPXPX",
"PXPXPXPXPXPXPXPXPXPXPXPXPXPXPXPXPXPXPXPXPXPXPXPXPXPXPXPXPXPXPXPXPXPXPX@X>X>X>X>X>X,X,X,XPXPXPXPXPXPXPXPXPXPXPXPXPXPXPXPXPXPXPXPXPXPXPXPXPXPXPXPXPXPXPXPXPXPXPXPXPXPX",
"PXPXPXPXPXPXPXPXPXPXPXPXPXPXPXPXPXPXPXPXPXPXPXPXPXPXPXPXPXPXPXPXPXPX@X>X>X>X>X3X>X>X#X#X,XPXPXPXPXPXPXPXPXPXPXPXPXPXPXPXPXPXPXPXPXPXPXPXPXPXPXPXPXPXPXPXPXPXPXPXPXPX",
"PXPXPXPXPXPXPXPXPXPXPXPXPXPXPXPXPXPXPXPXPXPXPXPXPXPXPXPXPXPXPXPXPX#X@X:X5X3X3X3X3X>X>X,X#XPXPXPXPXPXPXPXPXPXPXPXPXPXPXPXPXPXPXPXPXPXPXPXPXPXPXPXPXPXPXPXPXPXPXPXPXPX",
"PXPXPXPXPXPXPXPXPXPXPXPXPXPXPXPXPXPXPXPXPXPXPXPXPXPXPXPXPXPXPXPX@X@X@X:X3XeXgXeXeXeX>X>X#X#X_.x.x.z.PXPXPXPXPXPXPXPXPXPXPXPXPXPXPXPXPXPXPXPXPXPXPXPXPXPXPXPXPXPXPXPX",
"PXPXPXPXPXPXPXPXPXPXPXPXPXPXPXPXPXPXPXPXPXPXPXPXPXPXPXPXPXPXPXPX@X:X:X5XuXuXgXyXyXyX3X5X@X#XI.b.x.z.PXPXPXPXPXPXPXPXPXPXPXPXPXPXPXPXPXPXPXPXPXPXPXPXPXPXPXPXPXPXPXPX",
"PXPXPXPXPXPXPXPXPXPXPXPXPXPXPXPXPXPXPXPXPXPXPXPXPXPXPXPXPXPXPXPX^.:X;XeXuXiXiXiXyXyXyX3X@X#XI.x.z.z.PXPXPXPXPXPXPXPXPXPXPXPXPXPXPXPXPXPXPXPXPXPXPXPXPXPXPXPXPXPXPXPX",
"PXPXPXPXPXPXPXPXPXPXPXPXPXPXPXPXPXPXPXPXPXPXx.n.n.x.PXPXPXPXPX[.{.:X2XuXiXiXiXiXiXyXyX3X>X:XI.H.z./.PXPXPXPXPXPXPXPXPXPXPXPXPXPXPXPXPXPXPXPXPXPXPXPXPXPXPXPXPXPXPXPX",
"PXPXPXPXPXPXPXPXPXPXPXPXPXPXPXPXPXPXPXPXPXPXPXn.n.n.x.m.m.H.H.^.{.;X8XaXfXiXhXiXiXiXuXyX5X:X^.m.*.L K PXPXPXPXPXPXPXPXPXPXPXPXPXPXPXPXPXPXPXPXPXPXPXPXPXPXPXPXPXPXPX",
"PXPXPXPXPXPXPXPXPXPXPXPXPXPXPXPXPXPXPXPXPXPXPXz.m.n.m.m.m.L.G.K.!.1X0XaXdXdXhXfXhXiXiXgX4X*XE.V.>.#.#.PXPXPXPXPXPXPXPXPXPXPXPXPXPXPXPXPXPXPXPXPXPXPXPXPXPXPXPXPXPXPX",
"PXPXPXPXPXPXPXPXPXPXPXPXPXPXPXPXPXPXPXPXPXPXPXn.n.n.l.m.h.h.h.Y.:X7XaXaXdXdXhXhXhXhXdXiX0X1X{.Z.:.] T Y PXPXPXPXPXPXPXPXPXPXPXPXPXPXPXPXPXPXPXPXPXPXPXPXPXPXPXPXPXPX",
"PXPXPXPXPXPXPXPXPXPXPXPXPXPXPXPXPXPXPXPXPXPXPXx.n.*.*.4.g.g.f.J.&X7XpXsXdXdXhXhXhXhXhXdXaX0X*XY.3.{ ] I PXPXPXPXPXPXPXPXPXPXPXPXPXPXPXPXPXPXPXPXPXPXPXPXPXPXPXPXPXPX",
"PXPXPXPXPXPXPXPXPXPXPXPXPXPXPXPXPXPXPXPXPXPXPXz.&.*.>.:.,.2.f.J.{.6X0XaXdXdXhXjXjXjXmXhXfX0X2X~.B.:.^ ^ R PXPXPXPXPXPXPXPXPXPXPXPXPXPXPXPXPXPXPXPXPXPXPXPXPXPXPXPXPX",
"PXPXPXPXPXPXPXPXPXPXPXPXPXPXPXPXPXPXPXPXPXPXPXz.&.$.-.O.o.;.2.D.~.-X0XaXfXhXjXSXSXSXmXmXsX0X2X~.S.;._ Q W P PXPXPXPXPXPXPXPXPXPXPXPXPXPXPXPXPXPXPXPXPXPXPXPXPXPXPXPX",
"PXPXPXPXPXPXPXPXPXPXPXPXPXPXPXPXPXPXPXPXPXPXPXL &.-.:.[ X.O.2.A.Q.%X4XaXfXjXSXAXAXSXmXzXsXuX;X{.Z.o._ ! Q W W PXPXPXPXPXPXPXPXPXPXPXPXPXPXPXPXPXPXPXPXPXPXPXPXPXPXPX",
"PXPXPXPXPXPXPXPXPXPXPXPXPXPXPXPXPXPXPXPXPXPX/.&.%.-.{ [ [ o.<.C.T.&X1XuXfXjXSXZXZXZXSXzXsX9X*XE.M.{ ~ ! ~ ~ E W I PXPXPXPXPXPXPXPXPXPXPXPXPXPXPXPXPXPXPXPXPXPXPXPXPX",
"PXPXPXPXPXPXPXPXPXPXPXPXPXPXPXPXPXPXPXPXPXPXL &.$.:.o.[ [ o.2.B.Y.&X2XuXfXmXAXZXZXZXNXzXsX9X*XY.3.o._ _ _ ~ Q Q W PXPXPXPXPXPXPXPXPXPXPXPXPXPXPXPXPXPXPXPXPXPXPXPXPX",
"PXPXPXPXPXPXPXPXPXPXPXPXPXPXPXPXPXPXPXPXPXz.&.*.-.:.o.;.o.;.3.A.T.%X1XaXdXnXZXHXHXHXNXmXsX9X%XE.B.<.o.X.X._ ~ Q E PXPXPXPXPXPXPXPXPXPXPXPXPXPXPXPXPXPXPXPXPXPXPXPXPX",
"PXPXPXPXPXPXPXPXPXPXPXPXPXPXPXPXPXPXPXPXn.&.*.4.1.:.:.;.;.3.M.D.Q.*X0XaXzXNXFXHXHXHXVXzXlX9X;X!.J.f.<.,.O.` ~ ! Q PXPXPXPXPXPXPXPXPXPXPXPXPXPXPXPXPXPXPXPXPXPXPXPXPX",
"PXPXPXPXPXPXPXPXPXPXPXPXPXPXPXPXPXPXPXPX*.*.4.:.<.3.3.3.3.M.A.R.{.1X0XsXcXNXHXJXKXGXVXMXxXpX1X$XY.Z.f.2.<.O.X.~ E PXPXPXPXPXPXPXPXPXPXPXPXPXPXPXPXPXPXPXPXPXPXPXPXPX",
"PXPXPXPXPXPXPXPXPXPXPXPXPXPXPXPXPXPXn.n.*.-.-.:.3.3.2.M.B.A.U.~.%X7XpXxXnXVXHXKXKXGXDXMXcXsX8X:XE.J.Z.Z.f.g.,.+.] PXPXPXPXPXPXPXPXPXPXPXPXPXPXPXPXPXPXPXPXPXPXPXPXPX",
"PXPXPXPXPXPXPXPXPXPXPXPXPXPXPXPXm.n.*.>.-.-.{ ;.3.M.B.A.D.U.Q.%XrXwXkXbXBXDXGXKXKXLXDXBXbXxXqX-X$XQ.U.S.C.Z.f.2.4.PXPXPXPXPXPXPXPXPXPXPXPXPXPXPXPXPXPXPXPXPXPXPXPXPX",
"PXPXPXPXPXPXPXPXPXPXPXPXPXPXPX*.4.4.-.:...:.o.;.2.B.D.R.W.!.&X-X8XwXxXbXBXDXGXKXKXJXDXBXbXxXpX6X;X&X~.T.U.J.S.G.F.PXPXPXPXPXPXPXPXPXPXPXPXPXPXPXPXPXPXPXPXPXPXPXPXPX",
"PXPXPXPXPXPXPXPXPXPXPXPXPXPX*.-.-.+.{ { +.O.;.;.M.P.P.Q.oX%XrX6XwXkXxXbXVXDXLXKXKXJXGXBXBXcXkXwX7X-X=XoXQ.R.J.D.P.F.PXPXPXPXPXPXPXPXPXPXPXPXPXPXPXPXPXPXPXPXPXPXPXPX",
"PXPXPXPXPXPXPXPXPXPXPXPXPX%.$...{ ) ) { [ +.o.,.B.P.Q.oX=XrX6X8XpXxXbXDXDXDXKXKXKXJXGXBXDXbXxXkXqX8X1X=XoXQ.T.U.L.F.V.&.PXPXPXPXPXPXPXPXPXPXPXPXPXPXPXPXPXPXPXPXPXPX",
"PXPXPXPXPXPXPXPXPXPXPXPX&.%...( / E E _ +.+.;.3.A.W.oX%XrX6XwXkXxXbXBXVXDXGXKXKXKXKXLXDXBXBXbXlXpXqX8X1X%X!.Q.T.U.F.l.>.$.PXPXPXPXPXPXPXPXPXPXPXPXPXPXPXPXPXPXPXPXPX",
"PXPXPXPXPXPXPXPXPXPXPXPX%...( / E Q / { ;.,.<.M.P.W.&X=X8XqXkXxXbXMXBXVXDXLXKXKXKXKXLXGXDXBXDXbXlXpXqX8X-X&X~.Q.U.B.3...( I R PXPXPXPXPXPXPXPXPXPXPXPXPXPXPXPXPXPXPX",
"PXPXPXPXPXPXPXPXPXPXPXPX%.] ( W W W ) +.3.f.M.A.R.oX%X6XqXkXxXbXbXBXVXVXGXKXKXKXKXKXKXLXFXDXDXBXbXcXkXqX6X%X!.E.J.N.:.) W W U PXPXPXPXPXPXPXPXPXPXPXPXPXPXPXPXPXPXPX",
"PXPXPXPXPXPXPXPXPXPXPXPX%.} ( E Q Q ) O.g.B.C.J.W.$XrXwXkXbXbXBXMXBXVXHXJXKXKXKXKXKXKXJXLXDXDXDXBXbXvXaX0X;X$XQ.J.N.:.{ Q W W U PXPXPXPXPXPXPXPXPXPXPXPXPXPXPXPXPXPX",
"PXPXPXPXPXPXPXPXPXPXPXPX&.} ) ) _ ~ _ O.2.Z.S.R.~.%X7XpXxXnXBXBXNXVXFXGXKXKXKXKXKXKXKXKXKXGXFXDXVXMXcXlXpX1X&XQ.J.Z.g.;._ ^ W I Y T T PXPXPXPXPXPXPXPXPXPXPXPXPXPXPX",
"PXPXPXPXPXPXPXPXPXPXPXPX=... . .` ` [ ;.g.B.D.T.oX-X8XpXcXMXMXNXNXCXHXHXKXKXKXJXJXKXKXKXKXLXGXFXDXBXMXxXpX9X;X!.Y.J.N.g.:._ ^ / ] ( I ( I T PXPXPXPXPXPXPXPXPXPXPXPX",
"PXPXPXPXPXPXPXPXPXPXPXPX%... .X.X.o.;.2.M.A.P.W.&X6XqXkXcXMXNXNXCXFXHXKXKXJXGXGXFXLXJXKXKXKXJXGXDXVXMXxXkXqX6X&XE.J.S.N.2.;.{ { ) ^ E E W W W I PXPXPXPXPXPXPXPXPXPX",
"PXPXPXPXPXPXPXPXPXPXPXPX| ] ' X.X.O.<.f.S.J.T.oX=X8XpXxXcXNXNXCXFXFXHXKXJXGXDXVXVXDXGXJXKXKXJXGXHXVXVXnXlXpX8X=X~.T.J.S.M.<.o.[ _ ^ Q Q Q Q / W R PXPXPXPXPXPXPXPXPX",
"PXPXPXPXPXPXPXPXPXPXPXPXT ( / ' X.O.g.C.U.T.!.=X6XqXxXbXMXNXAXZXFXHXJXGXGXDXMXnXzXMXDXGXGXJXJXJXFXDXVXMXcXlXkX6X%X~.E.U.B.2.O.X.^ ! Q Q Q ! Q E W R PXPXPXPXPXPXPXPX",
"PXPXPXPXPXPXPXPXPXPXPXZ P U W ) o.2.N.D.W.!.*X6XqXxXcXMXNXNXCXAXHXHXHXGXVXVXzXdXzXzXMXDXFXGXGXGXFXHXFXVXMXbXxXqX6X%X!.T.S.N.2.O._ ^ ! ! ! ! ! Q W I PXPXPXPXPXPXPXPX",
"PXPXPXPXPXPXPXPXPXPXZ A P U W { 3.N.A.R.~.:X6XqXxXcXMXNXAXCXCXZXZXFXFXCXMXnXzXiXiXsXnXNXDXFXFXGXFXGXHXFXVXMXMXxXqX6X%X!.Y.S.C.2.[ ` ` ~ ! ! ! Q W W PXPXPXPXPXPXPXPX",
"PXPXPXPXPXPXPXPXPXJ Z P P U / :.N.D.U.Q.&X1XqXlXcXnXNXAXCXZXZXZXHXFXVXVXMXxXiXuXtXiXzXMXVXVXCXFXFXGXFXDXVXVXBXMXkXqXrX&XQ.U.J.M.<.o.[ _ ! Q Q ^ W R PXPXPXPXPXPXPXPX",
"PXPXPXPXPXPXPXPXJ Z A P P U ] 3.S.Y.Q.!.=X8XkXvXMXNXCXCXCXZXCXCXFXDXNXMXjXhXyXyXtXtXfXmXMXMXNXVXDXFXHXVXVXVXBXBXcXkX8X=X!.W.R.A.2.;.[ ^ ! ! Q W I PXPXPXPXPXPXPXPXPX",
"PXPXPXPXPXPXPXPXZ Z P P U U / <.A.Y.W.oX-XqXkXbXNXCXCXCXCXAXCXVXCXMXvXvXiXyX<X.X.X}.gXfXzXnXMXMXVXCXDXFXVXVXBXBXbXkXqX1X{.W.Y.C.2.o.` _ ~ ! Q I PXPXPXPXPXPXPXPXPXPX",
"PXPXPXPXPXPXPXPXPXJ Y P U W / :.M.D.T.oX6XqXxXMXVXAXZXZXAXNXNXNXnXvXaXgXyX.X.X`.`.[.}.4XuXfXhXmXMXNXVXVXVXVXDXBXBXcXpX1X{.Y.J.M.;.[ _ [ _ ~ ^ I PXPXPXPXPXPXPXPXPXPX",
"PXPXPXPXPXPXPXPXPXJ Z Y W E { :.M.D.W.&X8XkXvXBXCXAXHXAXAXNXnXvXfXuX<X|..X'.v.t.b y.'..X|.tXuXfXzXnXMXBXBXBXBXVXBXcXpX7XoXT.S.N.<.o.X.X.[ _ E I Y PXPXPXPXPXPXPXPXPX",
"PXPXPXPXPXPXPXPXPXPX#.$.] { :.M.G.P.oX=X9XlXbXVXZXZXZXZXSXmXhXgX4X}..X].).y.n n n b y.(.].]. XtXuXdXzXnXMXMXBXDXVXMXlX8X%XQ.U.C.f.,.o.o.[ ` ^ W R Y PXPXPXPXPXPXPXPX",
"PXPXPXPXPXPXPXPXPXPX%.-.:.:.M.B.P.oXoXrXqXcXNXCXZXZXZXAXmXfXyX5X}.].(.(.).0.n 5 a n q.s.(.(.]. X<XtXiXsXcXcXMXVXDXVXxXpX1X$XT.U.C.g.<.O.X._ ^ Q / I } PXPXPXPXPXPXPX",
"PXPXPXPXPXPXPXPXPX$.-.:.3.M.B.P.W.oX-XwXlXvXVXZXZXZXAXmXiX3X|..X'.j.k.a.9.c n 5 5 n 9.p.s.s.k.J.]. X<XuXsXzXcXBXFXDXBXkX9X;XoXW.J.B.g.,.o.` ~ ! Q ^ ) ] PXPXPXPXPXPX",
"PXPXPXPXPXPXPXPX-.{ -.:.M.B.P.W.oX=X8XkXvXBXAXZXZXAXSXhXtX}.'.H.j.a.a.9.9.5.d , 5 d 5.i.p.i.s.s.(.(. X<X4XiXxXBXFXGXVXcXpX7X=XoXW.D.N.g.,.X.~ ! Q ^ ~ `  . .PXPXPXPX",
"PXPXPXPXPXPX( ] { :.3.M.B.P.P.oX=X8XqXxXbXBXAXHXZXAXhXyX|.'.j.w.q.q.9.9.7.5.d , , d F 9.| i.8.i.s.k.].].<X4XsXnXDXFXDXbXbXqX8X=XoXW.P.B.2.o._ ! ! ! _  .@.@.@.PXPXPX",
"PXPXPXPX( ) ) ) { :.3.B.P.oXoXoX6XwXxXbXMXVXAXHXHXSXiX5X[.j.y.0.0.6.6.5.5.c d 3 , 4 j 5.5.D D D 8.i.s.L.].<XuXcXVXFXDXBXbXkXpX6X%XoXW.P.N.<.` ~ ! ! _  . .@.i.PXPXPX",
"PXPXPX .' ~ ~ ~ { :.M.P.oXoXoXrXwXkXxXbXMXCXCXHXZXmXyX}.H.t.e.6.c c n n n v k w 6 a a s i h h g g F 7.a.H. XtXfXMXDXDXBXbXbXkXwX-X&X~.T.S.g.o._ ~ ~ ~ ~ '  .} PXPXPX",
"PXPXPX . ._ ~ _ o.3.B.P.oXoXoXrXwXkXcXbXNXNXCXFXSXfX,X`.c.e.n l e V V e r 5 w 6 w w 6 6 6 5 6 6 i f g H j.].<XiXzXMXBXBXbXxXxXwXrX%XoXQ.D.B.<.o.` ~ ~ ~ ' ' ..PXPXPX",
"PXPXPX . . ._ [ :.3.B.P.P.oXoXoX9XkXxXcXMXCXCXVXvXeX[.b.M n e q q r 2 $ @ o o o o o # , , , < < < 7 u f 6.H.}.tXfXzXMXMXbXxXpX8X1X%X!.T.D.A.g.;.X.` _ _ ` `  .PXPXPX",
"PXPX@.@. .X.X.;.3.M.B.P.P.oXoXrX7XqXkXxXvXvXMXvXgX,Xb.M l e e q 2 @ O X o # # # o # o o o # # > , $ = 7 j w..XtXuXfXxXxXxXkXwX6X=X&X!.R.D.B.f.2.;.O.o.o.o.+...PXPXPX",
"PXPXPX@.O.O.,.<.3.M.M.B.P.R.oXoX;X8XqXaXvXMXvXvX,X_.B w 1 0 3 - o o o : u i f u i u 7 = # . . X & , & @ u 6.'.|.tXiXsXsXpXwX8X=X&X!.T.D.B.M.g.2.2.<.<.;.O. ...PXPXPX",
"PXPXPX@.@.1.1.1.3.3.3.M.B.P.W.oX&X;X8XpXlXlXvXgX,XN v O 1 2 - X X # u f f g g S D D D f y : o . o & , # = c y.}.<XtXiXaXqX6X-XoX!.T.U.A.M.g.2.2.2.<.<.;.O.@.| PXPXPX",
"PXPXPXPX%.>.1.;.:.o.;.<.3.M.D.Y.~.&X-X7XaXiXgX,X_.M ; + 3 = # X = u f f j D u.p.s.s.p.8.D g : = . . # # # 4 t.'.|.<XtX0X2X=X{.~.Y.J.A.N.g.<.,.,.,.,.O.o. ...$.PXPXPX",
"PXPXPXPX=.-.-.;.o.{ { ;.;.3.M.D.E.!.%X1X0XeX,X_.B l & = 4 + X + u i h F 7.u.p.p.s.(.p.u.8.D g 4 = . . o o @ n y..X<X4X4X2X%X!.W.J.S.f.g.<.,.O.O.O.O.X.` ` ] T PXPXPX",
"PXPXPX#.} ..+.+.o.o.{ { o.;.2.A.T.!.%X-X4X>X#XB m X + ; = + = = i f c 0.9.u.u.p.p.p.p.9.7.D S i 4 = . . # o 7 e.'.{.<X2X2X*X$XT.J.f.g.<.;.O.O.o.O.X.` ` ' ] T PXPXPX",
"PXPXPX} ( ' { [ { { o.{ X.O.<.C.T.oX%X;X5X#X_.m ; X = ; = - = p i j e.r.9.9.u.p.p.u.i.8.D D S i p 4 #   . o @ s t.[.}.2X;X*X$XT.S.g.<.O.o.X.X.X.X.X.[ X.` { } #.PXPX",
"PXPX#.] / ^ _ ` [ X.[ [ X.o.<.C.T.oX%X>X#X_.M w * = 4 - + - 4 p h e.e.e.0.8.u.u.u.p.9.7.D S g f d 4 = X   X @ < b v.[.:X:X:X{.R.Z.g.,.O.X.` [ [ X.[ [ X.[ { -.#.L PX",
"PXPX#.T / ~ _ [ [ [ o.o.X.o.,.M.P.Q.$X{._.b.l + O ; 7 - $ ; 4 h z r.t.t.r.0.8.9.u.9.8.7.D S S f a 4 7 #   . + - 3 b x.[.{.{.~.P.f.2.O.o.X.` ` [ [ [ [ X.+.+...%.&.PX",
"PXPX#.T / ) [ [ o.[ +.[ [ o.;.2.F.W.~.[.b.b 1 O - 7 ; - ; 4 s j r.r.c.M e.0.8.7.8.8.8.D S S g g d 4 7 =     X ; - p z x.H.^.^.A.Z.g.O.X.` ` _ [ [ [ [ [ { ] $.=.n.PX",
"PXPX#.T / ) [ X.[ X.[ X.X.X.O.<.B.P.K.x.e.e & X 3 7 ; @ 1 p s c y.v.c.c.c.6.7.8.8.8.7.D S g g f s d 4 = X   . + $ ; p e.n.L.F.S.f.g.O.X.` ~ ~ ) { ' { ) ] T #.&.PXPX",
"PXPXPX] / ) [ X.X.[ X.[ [ o.o.;.f.C.G.r.z 1 & - 7 - ; ; 4 l h H y.y.c.t.e.e.7.7.9.7.7.F S g g f s a 7 7 =     X - - 4 z K m.G.G.M.2.,. .~ ~ Q ^ / / ) W T #.L L PXPX",
"PXPXPXT ( ) { [ X.X.X.+.[ [ [ ;.2.f.l.e.0 $ $ 3 4 - = ; 0 s h 6.w.j.y.c.e.6.7.7.7.7.D D S S g f s a 4 = = .   . + - ; p H &.h.M.g.<.O.` _ Q W W I W I I R J L PXPXPX",
"PXPXPX} ( / ) ) ` [ X.X.X.[ o.o.,.1.&.z > & < 4 3 - - 3 p z h 6.y.j.a.q.q.7.7.D 7.7.u.9.8.F g f s a 4 7 7 X     X - - 0 z J >.:.O.O.+. .^ E I Y Y R Y Y Z PXPXPXPXPX",
"PXPXPXPXT ( W E / ` [ X.[ [ o.;.1.>.K 4 O $ 2 0 - - ; 2 k s h 6.q.r.0.0.0.7.5.5.5.0.).a.6.f y i i a 4 7 = =     . - $ ; l H } ] ( / ' ) E I R PXPXPXPXPXPXPXPXPXPXPX",
"PXPXPXPX#.T W W ( / ` ` _ _ X.,.>.=.z @ O < 0 8 ; ; ; 0 l s j e.e.l 1 * * * % 9 , * O .   . * 4 d d 4 = = = .     + - % 9 z Z U U W W W W U Y PXPXPXPXPXPXPXPXPXPXPX",
"PXPXPXPXPXT I U I ( ( ( ^ ^ ..>.%.H 2 & O 2 w 0 ; ; ; 0 k l z z m e *       X 9 *           . = 4 6 5 , @ o X     . $ % t p C A U U W W W R Z PXPXPXPXPXPXPXPXPXPXPX",
"PXPXPXPXPXPXPXPXPXPXY R I I } L e.l t O 1 8 w 3 t 1 0 0 e V m m V r .                         * > < < > , # + o . . & ; t 4 x C P U W W U Y J PXPXPXPXPXPXPXPXPXPXPX",
"PXPXPXPXPXPXPXPXPXPXPXY R P PXPX0 t * & 1 q 8 3 9 9 r e e e m V r t                           . , 5 5 < , < $ $ * X & t 9 t y C A P U I R Y J PXPXPXPXPXPXPXPXPXPXPX",
"PXPXPXPXPXPXPXPXPXPXPXPXA PXPXPX  . * ; r e t r 1 9 e e m m m m r t                           . 5 5 5 > , > 9 1 2 % $ % t % + y C P P Y Z #.J PXPXPXPXPXPXPXPXPXPXPX",
"PXPXPXPXPXPXPXPXPXPXPXPXPXPXPXPX  * & 9 r r r t ; 9 l m N XXN N V 9 * * . . .   .             & 5 5 5 5 5 5 2 8 r > & % ; &   : C P Y J K K PXPXPXPXPXPXPXPXPXPXPXPX",
"PXPXPXPXPXPXPXPXPXPXPXPXPXPXPXPX* % 1 8 9 r r r 9 0 v N OX+XXXN m v w 0 1 1 3 1 ; % $ & & * & , 5 5 5 5 5 > 2 q q 8 & * % % . + C A Z K /.PXPXPXPXPXPXPXPXPXPXPXPXPX",
"PXPXPXPXPXPXPXPXPXPXPXPXPXPXPXPX> 9 9 r 9 r e r 0 e m OX+X+X+XXXN m v k w w 0 6 2 8 > , & O $ > 5 5 5 5 > 2 5 w q r % & % %   X x A J K PXPXPXPXPXPXPXPXPXPXPXPXPXPX"
};
