/* XPM */
static char *enemy_fire[] = {
/* columns rows colors chars-per-pixel */
"64 128 69 1 ",
"  c black",
". c gray11",
"X c #28200C",
"o c #302410",
"O c #382C14",
"+ c #202020",
"@ c #282828",
"# c gray19",
"$ c gray22",
"% c #400000",
"& c #4C0000",
"* c #580000",
"= c #640000",
"- c #700000",
"; c #7C0000",
": c #483818",
"> c #543C1C",
", c #5C4020",
"< c #6C4824",
"1 c #744C28",
"2 c #484848",
"3 c #4C4C4C",
"4 c gray33",
"5 c #646464",
"6 c gray44",
"7 c #7C7C7C",
"8 c #880000",
"9 c #980000",
"0 c #B00000",
"q c #BC0000",
"w c #C80000",
"e c #D40000",
"r c #E00000",
"t c #EC0000",
"y c #FC0000",
"u c #FC2020",
"i c #9C4C00",
"p c #B45400",
"a c #80502C",
"s c #885830",
"d c #905C34",
"f c #9C6038",
"g c #A0643C",
"h c #CC6000",
"j c #E46C00",
"k c #A86840",
"l c #B47044",
"z c #BC7848",
"x c #FC4040",
"c c #FC5C5C",
"v c #FC7C7C",
"b c #FC8820",
"n c #FCF420",
"m c #D08050",
"M c #DC8854",
"N c #FC9840",
"B c #E88C58",
"V c #FCA85C",
"C c #FCF440",
"Z c #FCF85C",
"A c #FCFC7C",
"S c None",
"D c gray55",
"F c #989898",
"G c gray66",
"H c #B4B4B4",
"J c #FC9C9C",
"K c #C0C0C0",
"L c gray99",
/* pixels */
"SSSSSSSSSSSSSSSSSSSSSSSSSSSSSSSSSSSSSSSSSSSSSSSSSSSSSSSSSSSSSSSS",
"SSSSSSSSSSSSSSSSSSSSSSSSSSSSSSSSSSSSSSSSSSSSSSSSSSSSSSSSSSSSSSSS",
"SSSSSSSSSSSSSSSSSSSSSSSSSSSSSSSSSSSSSSSSSSSSSSSSSSSSSSSSSSSSSSSS",
"SSSSSSSSSSSSSSSSSSSSSSSSSSSSSSSSSSSSSSSSSSSSSSSSSSSSSSSSSSSSSSSS",
"SSSSSSSSSSSSSSSSSSSSSSSSSSSSSSSSSSSSSSSSSSSSSSSSSSSSSSSSSSSSSSSS",
"SSSSSSSSSSSSSSSSSSSSSSSSSSSSSSSSSSSSSSSSSSSSSSSSSSSSSSSSSSSSSSSS",
"SSSSSSSSSSSSSSSSSSSSSSSSSSSSSSSSSSSSSSSSSSSSSSSSSSSSSSSSSSSSSSSS",
"SSSSSSSSSSSSSSSSSSSSSSSSSSSSSSSSSSSSSSSSSSSSSSSSSSSSSSSSSSSSSSSS",
"SSSSSSSSSSSSSSSSSSSSSSSSSSSSSSSSSSSSSSSSSSSSSSSSSSSSSSSSSSSSSSSS",
"SSSSSSSSSSSSSSSSSSSSSSSSSSSSSSSSSSSSSSSSSSSSSSSSSSSSSSSSSSSSSSSS",
"SSSSSSSSSSSSSSSSSSSSSSSSSSSSSSSSSSSSSSSSSSSSSSSSSSSSSSSSSSSSSSSS",
"SSSSSSSSSSSSSSSSSSSSSSSSSSSSSSSSSSSSSSSSSSSSSSSSSSSSSSSSSSSSSSSS",
"SSSSSSSSSSSSSSSSSSSSSSSSSSSSSSSSSSSSSSSSSSSSSSSSSSSSSSSSSSSSSSSS",
"SSSSSSSSSSSSSSSSSSSSSSSSSSSSSS1ddds1SSSSSSSSSSSSSSSSSSSSSSSSSSSS",
"SSSSSSSSSSSSSSSSSSSSSSSSSSSSS1dssssd1SSSSSSSSSSSSSSSSSSSSSSSSSSS",
"SSSSSSSSSSSSSSSSSSSSSSSSSSSSS1dssssd1SSSSSSSSSSSSSSSSSSSSSSSSSSS",
"SSSSSSSSSSSSSSSSSSSSSSSSSSSSa1la<<fldaSSSSSSSSSSSSSSSSSSSSSSSSSS",
"SSSSSSSSSSSSSSSSSSSSSSSSSSSSakzgsslzkaSSSSSSSSSSSSSSSSSSSSSSSSSS",
"SSSSSSSSSSSSSSSSSSSSSSSSSSSSs,efkkse,sSSSSSS7SSSSSSSSSSSSSSSSSSS",
"SSSSSSSSSSSSSSSSSSSSSSSSSSSSSs9&<<&9sSSSSSSF5SSSSSSSSSSSSSSSSSSS",
"SSSSSSSSSSSSSSSSSSSSSSSSSSSSS1s<dd,s1sSSSSG7SSSSSSSSSSSSSSSSSSSS",
"SSSSSSSSSSSSSSSSSSSDHSSSSSSgk,s7LHXs1sfds<7SSSSSSSSSSSSSSSSSSSSS",
"SSSSSSSSSSSSSSSSSSSS7DKSS6Sda:a;XqXaO>dfkg6,SSSSSSSSSSSSSSSSSSSS",
"SSSSSSSSSSSSSSSSSSSSSSDHdfk<:O1;=xX1oO,aakddSSSSSSSSSSSSSSSSSSSS",
"SSSSSSSSSSSSSSSSSSSSSSS6sdgd<:<999><O:akkgda1SSSSSSSSSSSSSSSSSSS",
"SSSSSSSSSSSSSSSSSSSSSSS1asdfs:,7LHX,o,fggd1<,,SSSSSSSSSSSSSSSSSS",
"SSSSSSSSSSSSSSSSSSSSSSS:,<>aa<$:OO:ooaa1<>O>,aSSFSSSSSSSSSSSSSSS",
"SSSSSSSSSSSSSSSSSSSSSSSO:>o11,O:>>ooO<<<>:>11<<H6SSSSSSSSSSSSSSS",
"SSSSSSSSSSSSSSSSSSSSSSf>Ooo<K>Oooooo:,,,>o1fs116SSSSSSSSSSSSSSSS",
"SSSSSSSSSSSSSSSSSSSSSSfa,oX:o:OoXXO::O<lmMzzlf,SSSSSSSSSSSSSSSSS",
"SSSSSSSSSSSSSSSSSSSSSSafa<XooOooXXooOozBMMzmf<,SSSSSSSSSSSSSSSSS",
"SSSSSSSSSSSSSSSSSSSSSSSa,aOXXXXooOoXXXlmBMMza<SSSSSSSSSSSSSSSSSS",
"SSSSSSSSSSSSSSSSSSSSSSS<<<<XoO::Oo:>:OflmBmf>,SSSSSSSSSSSSSSSSSS",
"SSSSSSSSSSSSSSSSSSSSSS$2376Xo:O,OX,,>##$222$,SSSSSSSSSSSSSSSSSSS",
"SSSSSSSSSSSSSSSSSSSSSS+$4+4$ooO>Oo:azBmf+###+SSSSSSSSSSSSSSSSSSS",
"SSSSSSSSSSSSSSSSSSSSS+fl  #lSXXoO:lmmmmla@+++SSSSSSSSSSSSSSSSSSS",
"SSSSSSSSSSSSSSSSSSSSS1l1  +1loO:<lzlzld1<@@X+SSSSSSSSSSSSSSSSSSS",
"SSSSSSSSSSSSSSSSSSSSS1a:#+#:faallmkfa,::X+#+SSSSSSSSSSSSSSSSSSSS",
"SSSSSSSSSSSSSSSSSSSSS,a%:::&kkkfa:--*XXX....SSSSSSSSSSSSSSSSSSSS",
"SSSSSSSSSSSSSSSSSSSSS<8-====aaaa=*<,>:.....SSSSSSSSSSSSSSSSSSSSS",
"SSSSSSSSSSSSSSSSSSSSSSX-===----,>>>:::>:OSSSSSSSSSSSSSSSSSSSSSSS",
"SSSSSSSSSSSSSSSSSSSSSSSSSSSSO:>>>:OO:,<,:>SSSSSSSSSSSSSSSSSSSSSS",
"SSSSSSSSSSSSSSSSSSSSSSSSSSSS:>,>:OO:,a1<>:SSSSSSSSSSSSSSSSSSSSSS",
"SSSSSSSSSSSSSSSSSSSSSSSSSSSO:,<,:Oo,afa1,>SSSSSSSSSSSSSSSSSSSSSS",
"SSSSSSSSSSSSSSSSSSSSSSSSSSSO:,<,:oO1dgs1,>SSSSSSSSSSSSSSSSSSSSSS",
"SSSSSSSSSSSSSSSSSSSSSSSSSSSO:,<>Oo:adfa1,:SSSSSSSSSSSSSSSSSSSSSS",
"SSSSSSSSSSSSSSSSSSSSSSSSSSSO:,<:Oo>1sd1<>:SSSSSSSSSSSSSSSSSSSSSS",
"SSSSSSSSSSSSSSSSSSSSSSSSSSSO:,,Ooo><as<,::SSSSSSSSSSSSSSSSSSSSSS",
"SSSSSSSSSSSSSSSSSSSSSSSSSSSOO>>ooo>,1a,>O:SSSSSSSSSSSSSSSSSSSSSS",
"SSSSSSSSSSSSSSSSSSSSSSSSSSSOO::XXX:>,1,:OSSSSSSSSSSSSSSSSSSSSSSS",
"SSSSSSSSSSSSSSSSSSSSSSSSSSSooooXXXS:>,>OoSSSSSSSSSSSSSSSSSSSSSSS",
"SSSSSSSSSSSSSSSSSSSSSSSSSSSo3FoXXXSO>11ooSSSSSSSSSSSSSSSSSSSSSSS",
"SSSSSSSSSSSSSSSSSSSSSSSSSSS7SoXXXXSoo>>oSSSSSSSSSSSSSSSSSSSSSSSS",
"SSSSSSSSSSSSSSSSSSSSSSSSSSSSSoXXXXSooOOo1SSSSSSSSSSSSSSSSSSSSSSS",
"SSSSSSSSSSSSSSSSSSSSSSSSSSSSSSoXXXSooooo,SSSSSSSSSSSSSSSSSSSSSSS",
"SSSSSSSSSSSSSSSSSSSSSSSSSSSSSSSXXXSooooO>SSSSSSSSSSSSSSSSSSSSSSS",
"SSSSSSSSSSSSSSSSSSSSSSSSSSSSSSSXooSOoOo:SSSSSSSSSSSSSSSSSSSSSSSS",
"SSSSSSSSSSSSSSSSSSSSSSSSSSSSSSS:ooSSoOoSSSSSSSSSSSSSSSSSSSSSSSSS",
"SSSSSSSSSSSSSSSSSSSSSSSSSSSSSSS:SoSSOOOSSSSSSSSSSSSSSSSSSSSSSSSS",
"SSSSSSSSSSSSSSSSSSSSSSSSSSSSSSS:S6SS:::SSSSSSSSSSSSSSSSSSSSSSSSS",
"SSSSSSSSSSSSSSSSSSSSSSSSSSSSSSSSSSSS>1<SSSSSSSSSSSSSSSSSSSSSSSSS",
"SSSSSSSSSSSSSSSSSSSSSSSSSSSSSSSSSSS>,,1<SSSSSSSSSSSSSSSSSSSSSSSS",
"SSSSSSSSSSSSSSSSSSSSSSSSSSSSSSSSSSO11,:11SSSSSSSSSSSSSSSSSSSSSSS",
"SSSSSSSSSSSSSSSSSSSSSSSSSSSSSSSSSSO:H:OOH<SSSSSSSSSSSSSSSSSSSSSS",
"SSSSSSSSSSSSSSSSSSSSSSSSSSSSSSSSSSSSSSSSSSSSSSSSSSSSSSSSSSSSSSSS",
"SSSSSSSSSSSSSSSSSSSSSSSSSSSSSSSSSSSSSSSSSSSSSSSSSSSSSSSSSSSSSSSS",
"SSSSSSSSSSSSSSSSSSSSSSSSSSSSSSSSSSSSSSSSSSSSSSSSSSSSSSSSSSSSSSSS",
"SSSSSSSSSSSSSSSSSSSSSSSSSSSSSSSSSSSSSSSSSSSSSSSSSSSSSSSSSSSSSSSS",
"SSSSSSSSSSSSSSSSSSSSSSSSSSSSSSSSSSSSSSSSSSSSSSSSSSSSSSSSSSSSSSSS",
"SSSSSSSSSSSSSSSSSSSSSSSSSSSSSSSSSSSSSSSSSSSSSSSSSSSSSSSSSSSSSSSS",
"SSSSSSSSSSSSSSSSSSSSSSSSSSSSSSSSSSSSSSSSSSSSSSSSSSSSSSSSSSSSSSSS",
"SSSSSSSSSSSSSSSSSSSSSSSSSSSSSSSSSSSSSSSSSSSSSSSSSSSSSSSSSSSSSSSS",
"SSSSSSSSSSSSSSSSSSSSSSSSSSSSSSSSSSSSSSSSSSSSSSSSSSSSSSSSSSSSSSSS",
"SSSSSSSSSSSSSSSSSSSSSSSSSSSSSSSSSSSSSSSSSSSSSSSSSSSSSSSSSSSSSSSS",
"SSSSSSSSSSSSSSSSSSSSSSSSSSSSSSSSSSSSSSSSSSSSSSSSSSSSSSSSSSSSSSSS",
"SSSSSSSSSSSSSSSSSSSSSSSSSSSSSSSSSSSSSSSSSSSSSSSSSSSSSSSSSSSSSSSS",
"SSSSSSSSSSSSSSSSSSSSSSSSSSSSSSSSSSSSSSSSSSSSSSSSSSSSSSSSSSSSSSSS",
"SSSSSSSSSSSSSSSSSSSSSSSSSSSSSS1ddds1SSSSSSSSSSSSSSSSSSSSSSSSSSSS",
"SSSSSSSSSSSSSSSSSSSSSSSSSSSSS1dssssd1SSSSSSSSSSSSSSSSSSSSSSSSSSS",
"SSSSSSSSSSSSSSSSSSSSSSSSSSSSS1dssssd1SSSSSSSSSSSSSSSSSSSSSSSSSSS",
"SSSSSSSSSSSSSSSSSSSSSSSSSSSSa1la<<fldaSSSSSSSSSSSSSSSSSSSSSSSSSS",
"SSSSSSSSSSSSSSSSSSSSSSSSSSSSakzgsslzkaSSSSSSSSSSSSSSSSSSSSSSSSSS",
"SSSSSSSSSSSSSSSSSSSSSSSSSSSSs,efkkse,sSSSSSS7SSSSSSSSSSSSSSSSSSS",
"SSSSSSSSSSSSSSSSSSSSSSSSSSSSSs9&<<&9sSSSSSSF5SSSSSSSSSSSSSSSSSSS",
"SSSSSSSSSSSSSSSSSSSSSSSSSSSSS1s<dd,s1sSSSSG7SSSSSSSSSSSSSSSSSSSS",
"SSSSSSSSSSSSSSSSSSSDHSSSSSSgk,s7LHXs1sfds<7SSSSSSSSSSSSSSSSSSSSS",
"SSSSSSSSSSSSSSSSSSSS7DKSS6Sda:a;XqXaO>dfkg6,SSSSSSSSSSSSSSSSSSSS",
"SSSSSSSSSSSSSSSSSSSSSSDHdfk<:O1;=xX1oO,aakddSSSSSSSSSSSSSSSSSSSS",
"SSSSSSSSSSSSSSSSSSSSSSS6sdgd<:<999><O:akkgda1SSSSSSSSSSSSSSSSSSS",
"SSSSSSSSSSSSSSSSSSSSSSS1asdfs:,7LHX,o,fggd1<,,SSSSSSSSSSSSSSSSSS",
"SSSSSSSSSSSSSSSSSSSSSSS:,<>aa<$:OO:ooaa1<>O>,aSSFSSSSSSSSSSSSSSS",
"SSSSSSSSSSSSSSSSSSSSSSSO:>o11,O:>>ooO<<<>:>11<<H6SSSSSSSSSSSSSSS",
"SSSSSSSSSSSSSSSSSSSSSSf>Ooo<K>Oooooo:,,,>o1fs116SSSSSSSSSSSSSSSS",
"SSSSSSSSSSSSSSSSSSSSSSfa,oX:o:OoXXO::<pjjzkd1>,SSSSSSSSSSSSSSSSS",
"SSSSSSSSSSSSSSSSSSSSSSafa,:ooOooXXoo:sbNNzmks,,SSSSSSSSSSSSSSSSS",
"SSSSSSSSSSSSSSSSSSSSSSSeye:OXXXooOoO:fbNNMmfa<SSSSSSSSSSSSSSSSSS",
"SSSSSSSSSSSSSSSSSSSSSwyxcxe8oO::Oo:+#shbbmka,,SSSSSSSSSSSSSSSSSS",
"SSSSSSSSSSSSSSSSSSSSSucJVvxe8:O,OX,8#iip2$,,:SSSSSSSSSSSSSSSSSSS",
"SSSSSSSSSSSSSSSSSSSSexJAnZvu0oO>OofbNbdi###..SSSSSSSSSSSSSSSSSSS",
"SSSSSSSSSSSSSSSSSSSSycVnCnVct8X<kNbNNml<++..+SSSSSSSSSSSSSSSSSSS",
"SSSSSSSSSSSSSSSSSSSSSuvZnZvuefajNbjlld1:@@..+SSSSSSSSSSSSSSSSSSS",
"SSSSSSSSSSSSSSSSSSSSSrxvVvxrfa;1saa;,:.X..+@@SSSSSSSSSSSSSSSSSSS",
"SSSSSSSSSSSSSSSSSSSSS,rucura;-**;:==**XXXXXXSSSSSSSSSSSSSSSSSSSS",
"SSSSSSSSSSSSSSSSSSSSS<dexe;;**XX**<,>:.....SSSSSSSSSSSSSSSSSSSSS",
"SSSSSSSSSSSSSSSSSSSSSSX**$+XXXX,>>>:::>:OSSSSSSSSSSSSSSSSSSSSSSS",
"SSSSSSSSSSSSSSSSSSSSSSSSSSSSO:>>>:OO:,<,:>SSSSSSSSSSSSSSSSSSSSSS",
"SSSSSSSSSSSSSSSSSSSSSSSSSSSS:>,>:OO:,a1<>:SSSSSSSSSSSSSSSSSSSSSS",
"SSSSSSSSSSSSSSSSSSSSSSSSSSSO:,<,:Oo,afa1,>SSSSSSSSSSSSSSSSSSSSSS",
"SSSSSSSSSSSSSSSSSSSSSSSSSSSO:,<,:oO1dgs1,>SSSSSSSSSSSSSSSSSSSSSS",
"SSSSSSSSSSSSSSSSSSSSSSSSSSSO:,<>Oo:adfa1,:SSSSSSSSSSSSSSSSSSSSSS",
"SSSSSSSSSSSSSSSSSSSSSSSSSSSO:,<:Oo>1sd1<>:SSSSSSSSSSSSSSSSSSSSSS",
"SSSSSSSSSSSSSSSSSSSSSSSSSSSO:,,Ooo><as<,::SSSSSSSSSSSSSSSSSSSSSS",
"SSSSSSSSSSSSSSSSSSSSSSSSSSSOO>>ooo>,1a,>O:SSSSSSSSSSSSSSSSSSSSSS",
"SSSSSSSSSSSSSSSSSSSSSSSSSSSOO::XXX:>,1,:OSSSSSSSSSSSSSSSSSSSSSSS",
"SSSSSSSSSSSSSSSSSSSSSSSSSSSooooXXXS:>,>OoSSSSSSSSSSSSSSSSSSSSSSS",
"SSSSSSSSSSSSSSSSSSSSSSSSSSSo3FoXXXSO>11ooSSSSSSSSSSSSSSSSSSSSSSS",
"SSSSSSSSSSSSSSSSSSSSSSSSSSS7SoXXXXSoo>>oSSSSSSSSSSSSSSSSSSSSSSSS",
"SSSSSSSSSSSSSSSSSSSSSSSSSSSSSoXXXXSooOOo1SSSSSSSSSSSSSSSSSSSSSSS",
"SSSSSSSSSSSSSSSSSSSSSSSSSSSSSSoXXXSooooo,SSSSSSSSSSSSSSSSSSSSSSS",
"SSSSSSSSSSSSSSSSSSSSSSSSSSSSSSSXXXSooooO>SSSSSSSSSSSSSSSSSSSSSSS",
"SSSSSSSSSSSSSSSSSSSSSSSSSSSSSSSXooSOoOo:SSSSSSSSSSSSSSSSSSSSSSSS",
"SSSSSSSSSSSSSSSSSSSSSSSSSSSSSSS:ooSSoOoSSSSSSSSSSSSSSSSSSSSSSSSS",
"SSSSSSSSSSSSSSSSSSSSSSSSSSSSSSS:SoSSOOOSSSSSSSSSSSSSSSSSSSSSSSSS",
"SSSSSSSSSSSSSSSSSSSSSSSSSSSSSSS:S6SS:::SSSSSSSSSSSSSSSSSSSSSSSSS",
"SSSSSSSSSSSSSSSSSSSSSSSSSSSSSSSSSSSS>1<SSSSSSSSSSSSSSSSSSSSSSSSS",
"SSSSSSSSSSSSSSSSSSSSSSSSSSSSSSSSSSS>,,1<SSSSSSSSSSSSSSSSSSSSSSSS",
"SSSSSSSSSSSSSSSSSSSSSSSSSSSSSSSSSSO11,:11SSSSSSSSSSSSSSSSSSSSSSS",
"SSSSSSSSSSSSSSSSSSSSSSSSSSSSSSSSSSO:H:OOH<SSSSSSSSSSSSSSSSSSSSSS"
};
