/* XPM */
static char *enemies1[] = {
/* columns rows colors chars-per-pixel */
"90 60 45 1 ",
"  c #2B230F",
". c #332B13",
"X c #3F2F17",
"o c gray23",
"O c #4F0000",
"+ c #670000",
"@ c #730000",
"# c #4B371B",
"$ c #533F1F",
"% c #5F4323",
"& c #6B4727",
"* c #774F2B",
"= c #7F532F",
"- c gray28",
"; c gray39",
": c gray42",
"> c #6F6F6F",
", c #777777",
"< c #8B0000",
"1 c #9B0000",
"2 c #FF1F1F",
"3 c #875733",
"4 c #8F5F37",
"5 c #9B633B",
"6 c #A36B3F",
"7 c #AB6F43",
"8 c #B37347",
"9 c #BF7B4B",
"0 c #CB7F4F",
"q c #D78B5B",
"w c #838383",
"e c #8B8B8B",
"r c #979797",
"t c #9F9F9F",
"y c #A7A7A7",
"u c gray67",
"i c gray70",
"p c #B7B7B7",
"a c gray75",
"s c LightGray",
"d c gray86",
"f c #DFDFDF",
"g c #E7E7E7",
"h c white",
"j c None",
/* pixels */
"jjjjjjjjjjjjjjjjjjjjjjjjjjjjjjjjjjjjjjjjjjjjjjjjjjjjjjjjjjjjjjjjjjjjjjjjjjjjjjjjjjjjjjjjjj",
"jjjjjjjjjjjjjjjjjjjjjjjjjjjjjjjjjjjjjjjjjjjjjjjjjjjjjjjjjjjjjjjjjjjjjjjjjjjjjjjjjjjjjjjjjj",
"jjjjjjjjjjjjjjjjjjjjjjjjjjjjjjjjjjjjjjjjjjjjjjjjjjjjjjjjjjjjjjjjjjjjjjjjjjjjjjjjjjjjjjjjjj",
"jjjjjjjjjjjjjjjjjjjjj*=55=*jjjjjjjjjjjjjjjjjjjjjjjjjjjjjjjjjjjjjjjjjjjjjjjjjjjjjjjjjjjjjjj",
"jjjjjjjjjjjjjjjjjjjj*344443*jjjjjjjjjjjjjjjjjjjjjjjjjjjjjjjjjjjjjjjjjjjjjjjjjjjjjjjjjjjjjj",
"jjjjjjjjjjjjjjjjjjj*44333344*jjjjjjjjjjjjjjjjjjjjjjjjjjjjjjjjjjjjjjjjjjjjjjjjjjjjjjjjjjjjj",
"jjjjjjjjjjjjjjjjjjj*85=&&=584jjjjjjjjjjjjjjjjjjjjjjjjjjjjjjjjjjjjjjjjjjjjjjjjjjjjjjjjjjjjj",
"jjjjjjjjjjjjjjjjjj=7986336897=jjjjjjjjjjjjjjjjjjjjjjjjjjjjjjjjjjjjjjjjjjjjjjjjjjjjjjjjjjjj",
"jjjjjjjjjjjjjjjjjj3%#357753#%3jjjjjjjjjjjjjjjjjjjjjjjjjjjjjjjjjjjjjjjjjjjjjjjjjjjjjjjjjjjj",
"jjjjjjjjjjjjjjjjjj3&@2.X#.2@&3jjjjjjjjjjjjjjjjjjjjjjjjjjjjjjjjjjjjjjjjjjjjjjjjjjjjjjjjjjjj",
"jjjjjjjjjjjjjjjjjjj3&O#&&#O&3jjjjjjjjjjjjjjjjjjjjjjjjjjjjjjjjjjjjjjjjjjjjjjjjjjjjjjjjjjjjj",
"jjjjjjjjjjjjjjjjjjj*4%&44&%4*jjjjjjjjjjjejjjjjjjjjjjjjjjjjjjjjjjjjjjjjjjjjjjjjjjjjjjjjjjjj",
"jjjjjjjjjjjjjjjjjj4*6 whiw 6*4=jjjjjjjei>jjjjjjjjjjjjjjjjjjjjjjjjjjjjjjjjjjjjjjjjjjjjjjjjj",
"jjjjjjwujjjjjjjj543*5X<  <X5*344*jjj>ut>jjjjjjjjjjjjjjjjjjjjjjjjjjjjjjjjjjjjjjjjjjjjjjjjjj",
"jjjjjjjwtw>jj35653&$4#<++<#4$&35654ugu>jjjjjjjjjjjjjjjjjjjjjjjjjj46664jjjjjjjjjjjjjjjjjjjj",
"jjjjjjjjjrug35643%#X3$<11<$3X#%346543>jjjjjjjjjjjjjjjjjjjjjjjjjj**444**jjjjjjjjjjjjjjjjjjj",
"jjjjjjjjjj,u*3564*%#=%whiw%=#%*46543=*jjjjjjjjjjjjjjjjjjjjjjjjj%&*****&%jjjjjjjjjjjjjjjjjj",
"jjjjjjjjjjj&&*4543&$&$0qq0$&%=35543=*&jjjjjjjjjjjjjjjjjjjjjjwjj%u%%%%%%%ujjjjjjjjjjjjjjjjj",
"jjjjjjjjjjj%$%=3===X$*%$$%*$&34443*&&%#jjjjjjjjjjjjjjjjj,jjjyj$=f3*&%%*3f*jj;jjjjjjjjjjjjj",
"jjjjjjjjjjX##X&&&wp%X$%&&%$#*3ug3&%#%$#guejjjjjjjjjjjjjjr=4=d*=7633&=&367=*%&jj,wjjjjjjjjj",
"jjjjjjwwug#X..#%%%X$#X#. .#%*=*X&$#X#####jjjjjjjjjjjjjj%8333&%&343=**&34=&$$47ayjjjjjjjjjj",
"jjjjjjj$$%$#. .#$$X$$#XX X#$%&%X$#X..XXX.jjjjjjjjjjjjjj%&*=*%&=54=*&&&=43*&%36ejjjjjjjjjjj",
"jjjjjjj$%%#X   .X#X$%$X...#$$%#XX.. X###X.jjjjjjjjjjjj*453&%$&343*&$%%*33*&%&=*#jjjjjjjjjj",
"jjjjjjj$$#X   #X.XXXX......XXXXXX#. #$%$#.jjjjjjjjjjj&453=*%&%&==&%#$$&*&&%$%&%.jjj,jjjjjj",
"jjjjjj$#X.  .X.#XX#$%$X.#.X$%$#X.X  #%&%#.jjjjjjjjjjj353=*&%&%%&&%$#$%&&&%%&&%##*,tjjjjjjj",
"jjjjjj$X.  X#jj.X#$#X#%$ $%#X#$#..jj.$%$X jjjjjjjjjj&**=*&%#*&%%%$##$%%%%&3*%#.%43,jjjjjjj",
"jjjug$%&#. #jjjjX##.X$$X X$$X.##Xjjjj-XX  Xjjjjjjjjj*3&%%$$j3*&%$#X%$%%%&3=&$ .$3*%jjjjjjj",
"jjjjj$&&$X.#jjjjj#.   .XXX.....#jjjjjj...##jjjjjjjjj353$Xjjjj3=&$##&$&%%**&%. .#$%$jjjjjjj",
"jjjjj%*&$X.jjjjjjX .X$&$.%&$X..Xjjjjjj  .$%$jjjjjjj%*54$#jjjj&=*%$#&$&%&&&%#j  .X$$jjjjjjj",
"jjjjj&=%$X.jjjjjj#X..##X.X##..X#jjjjjj .X%&&jjjjjjj$%**#%jjjj%&*&%$%%&&*&%$jjj  .Xsyjjjjjj",
"jjjjj*3$#Xjjjjjjj$#X..XX#XX.XX#$jjjjjj.X#%*&jjjjjjjys*#X$jjjjj%*&&%%&&==*%#jjjX  ...jjjjjj",
"jjjjj*=$X.jjjjjjX$##$%&%$&*&$##$#jjjjj.##&*:jjjjjjjX&&X.#jjjjj#*33*&*=33=&$#$$#X ..jjjjjjj",
"jjjjj**$XjjjjjjjX$#X#%&$X$&$#XX$#jjjjjX#$&*jjjjjjjjX$$X.Xjjjjj#&=**&3===*&$##XX  .jjjjjjjj",
"jjjjj**$.jjjjjjj#%$#X$$#.#$#XX#$#jjjjjX$%&%jjjjjjjjj .X..jjjj#$*43&&=&*=*&$#....jjjjjjjjjj",
"jjjjj&&$.jjjjjjj#&%$#X#$$$#XX#$%$#jjj&==&*jjjjjjjjjj ...jjjjj#%=4=&$&%&*&%$#jjjjjjjjjjjjjj",
"jjjjj&%&#jjjjjj#$&&%$#X###XX#$%%$#jj$#&&&*jjjjjjjjjjj ..jjjj#X%&*&%$#$$%%$$#jjjjjjjjjjjjjj",
"jjjjj$%**XjjjjjX$&*&%#.XXXXX#$&&%#XjXX#%&jjjjjjjjjjjj ..jjjj$X$$$$$#X#$$$$$#jjjjjjjjjjjjjj",
"jjjjj$&&#Xjjjjj.$&=*&$.   X#$%*&%#Xj..X%$jjjjjjjjjjjjjXX.jjj%X#####X.X######jjjjjjjjjjjjjj",
"jjjjj%$X. jjjjj.#&3=*$.   X#%&*&$#Xjj   jjjjjjjjjjjjjj#X..jj%#XXXXX....XXXX#jjjjjjjjjjjjjj",
"jjjjjj   jjjjjj.#&=3*#.Xjj.#%&*%$#Xjjjjjjjjjjjjjjjjjjj#...jj%#X.....X......#jjjjjjjjjjjjjj",
"jjjjjjjjjjjjjjj.$%*3&#.#jj.X$&&%#XXjjjjjjjjjjjjjjjjjjjj..jjj$#X.....jX....X#jjjjjjjjjjjjjj",
"jjjjjjjjjjjjjjjX&$%&%XX$jj..#&%$#.Xjjjjjjjjjjjjjjjjjjjjjjjjj$##XX...jX....X#jjjjjjjjjjjjjj",
"jjjjjjjjjjjjjjjX&%$%###$jjX.X$$#X.jjjjjjjjjjjjjjjjjjjjjjjjjj##$##XXXjX....X#jjjjjjjjjjjjjj",
"jjjjjjjjjjjjjjjX$&%XXX$$jj#X.X#X..jjjjjjjjjjjjjjjjjjjjjjjjjj#X$%%$#XjX....X#jjjjjjjjjjjjjj",
"jjjjjjjjjjjjjjjj#$#..X$$jj#X..XX.Xjjjjjjjjjjjjjjjjjjjjjjjjjj#X$&&$#XjX....Xjjjjjjjjjjjjjjj",
"jjjjjjjjjjjjjjjj.#X  .X#jjjX.##X.jjjjjjjjjjjjjjjjjjjjjjjjjjjjX$&&$#XjX....Xjjjjjjjjjjjjjjj",
"jjjjjjjjjjjjjjjjj. #$#.Xjjj..$d#.jjjjjjjjjjjjjjjjjjjjjjjjjjjjX$&%%#XjX...Xjjjjjjjjjjjjjjjj",
"jjjjjjjjjjjjjjjjjX %%%..jjj..XuX.jjjjjjjjjjjjjjjjjjjjjjjjjjjj#%%$%##j...XXjjjjjjjjjjjjjjjj",
"jjjjjjjjjjjjjjjjjjX%d%..jjj.. w..jjjjjjjjjjjjjjjjjjjjjjjjjjjj#&*$&#jj.X#Xjjjjjjjjjjjjjjjjj",
"jjjjjjjjjjjjjjjjjjXXf$XX$jjX.  .Xjjjjjjjjjjjjjjjjjjjjjjjjjjjj#*33*$jj.#$$%jjjjjjjjjjjjjjjj",
"jjjjjjjjjjjjjjjjjjXX..X#%jj..  .Xjjjjjjjjjjjjjjjjjjjjjjjjjjjj$3553&$j.$&*%jjjjjjjjjjjjjjjj",
"jjjjjjjjjjjjjjjjjj#...X$%jj..XX.jjjjjjjjjjjjjjjjjjjjjjjjjjjjj$*3&3&$j.$%&%jjjjjjjjjjjjjjjj",
"jjjjjjjjjjjjjjjjjjj...X$$jj.X##Xjjjjjjjjjjjjjjjjjjjjjjjjjjjjj#%&$&%$j.#$$%jjjjjjjjjjjjjjjj",
"jjjjjjjjjjjjjjjjjjj.X###jjjX####jjjjjjjjjjjjjjjjjjjjjjjjjjjjjX$%$$#jj.X#$%jjjjjjjjjjjjjjjj",
"jjjjjjjjjjjjjjjjjjjj#%&$jjjX#$#$#jjjjjjjjjjjjjjjjjjjjjjjjjjjjj#$#$Xjj.X#$jjjjjjjjjjjjjjjjj",
"jjjjjjjjjjjjjjjjjjjj$&*%jjj#X#j##jjjjjjjjjjjjjjjjjjjjjjjjjjjjjX$%#Xjj.XX$jjjjjjjjjjjjjjjjj",
"jjjjjjjjjjjjjjjjjjj$&**%#jj#uXju#jjjjjjjjjjjjjjjjjjjjjjjjjjjjjX&&$Xjj.XX$jjjjjjjjjjjjjjjjj",
"jjjjjjjjjjjjjjjjjj&&*&%%$jjjjjjjjjjjjjjjjjjjjjjjjjjjjjjjjjjjjj$&*&$jj.XX#jjjjjjjjjjjjjjjjj",
"jjjjjjjjjjjjjjjjj&**#j%**$jjjjjjjjjjjjjjjjjjjjjjjjjjjjjjjjjjjj$***%jj.oo#jjjjjjjjjjjjjjjjj",
"jjjjjjjjjjjjjjjjj&iXXj#i#$jjjjjjjjjjjjjjjjjjjjjjjjjjjjjjjjjjjj#####jjjjjjjjjjjjjjjjjjjjjjj"
};
