/* XPM */
static char *floor[] = {
/* width height num_colors chars_per_pixel */
"16 16 3 1",
/* colors */
"  c #020305",    /* Noir sombre */
". c #444444",    /* Gris */
"X c #FFFFFF",    /* Blanc */
/* pixels */
"................",
"................",
"........XXXX....",
"........XXXX....",
"........XXXX....",
"................",
"................",
"....XXXX........",
"....XXXX........",
"....XXXX........",
"................",
"................",
"........XXXX....",
"........XXXX....",
"........XXXX....",
"................"
};
