/* XPM */
static char *player[] = {
/* width height num_colors chars_per_pixel */
"16 16 4 1",
/* colors */
"  c #020305",    /* Noir sombre */
". c #00FF00",    /* Vert (joueur) */
"X c #444444",    /* Gris */
"o c #FFFFFF",    /* Blanc */
/* pixels */
"       ..       ",
"      ....      ",
"     ......     ",
"    ........    ",
"    ...XX...    ",
"    ..XXXX..    ",
"     ..XX..     ",
"       XX       ",
"      oXXo      ",
"      oXXo      ",
"      oXXo      ",
"       XX       ",
"      XXXX      ",
"     XXXXXX     ",
"    XXXXXXXX    ",
"   XXXXXXXXo    "
};
