/* XPM */
static char *wall[] = {
/* width height num_colors chars_per_pixel */
"16 16 3 1",
/* colors */
"  c #020305",    /* Noir sombre */
". c #888888",    /* Gris clair */
"X c #444444",    /* Gris foncé */
/* pixels */
"XXXXXXXXXXXXXXXX",
"X..............X",
"X..............X",
"X.XXXXXXXXXX...X",
"X.XXXXXXXXXX...X",
"X.XXXXXXXXXX...X",
"X.XXXXXXXXXX...X",
"X..............X",
"X..............X",
"X.XXXXXXXXXX...X",
"X.XXXXXXXXXX...X",
"X.XXXXXXXXXX...X",
"X.XXXXXXXXXX...X",
"X..............X",
"X..............X",
"XXXXXXXXXXXXXXXX"
};
